<svg xmlns="http://www.w3.org/2000/svg" version="1.1" xmlns:xlink="http://www.w3.org/1999/xlink" xmlns:svgjs="http://svgjs.dev/svgjs" width="1000" height="625" viewBox="0 0 1000 625"><g transform="matrix(1,0,0,1,0,0)"><svg viewBox="0 0 576 360" data-background-color="#471aa0" preserveAspectRatio="xMidYMid meet" height="625" width="1000" xmlns="http://www.w3.org/2000/svg" xmlns:xlink="http://www.w3.org/1999/xlink"><g id="tight-bounds" transform="matrix(1,0,0,1,0,0)"><svg viewBox="0 0 576 360" height="360" width="576"><g><svg></svg></g><g><svg viewBox="0 0 576 360" height="360" width="576"><g><path xmlns="http://www.w3.org/2000/svg" d="M132.115 90l155.885-90 155.885 90v180l-155.885 90-155.885-90z" fill="#ffffff" fill-rule="nonzero" stroke="none" stroke-width="1" stroke-linecap="butt" stroke-linejoin="miter" stroke-miterlimit="10" stroke-dasharray="" stroke-dashoffset="0" font-family="none" font-weight="none" font-size="none" text-anchor="none" style="mix-blend-mode: normal" data-fill-palette-color="tertiary"></path></g><g transform="matrix(1,0,0,1,229.6761246088896,99)"><svg viewBox="0 0 116.64775078222075 162" height="162" width="116.64775078222075"><g><svg viewBox="0 0 116.64775078222075 162" height="162" width="116.64775078222075"><g><svg viewBox="0 0 230.4 319.9787372641649" height="162" width="116.64775078222075"><g transform="matrix(1,0,0,1,0,181.8119382173023)"><svg viewBox="0 0 230.4 138.1667990468626" height="138.1667990468626" width="230.4"><g id="textblocktransform"><svg viewBox="0 0 230.4 138.1667990468626" height="138.1667990468626" width="230.4" id="textblock"><g><svg viewBox="0 0 230.4 138.1667990468626" height="138.1667990468626" width="230.4"><g transform="matrix(1,0,0,1,0,0)"><svg width="230.4" viewBox="4.5 -37.5 62.94000244140625 37.75" height="138.1667990468626" data-palette-color="#471aa0"><path d="M13.5-1.35L4.5 0.05Q5.65-5.45 6.7-10.8L6.7-10.8Q7.15-13.05 7.6-15.5 8.05-17.95 8.47-20.33 8.9-22.7 9.22-24.93 9.55-27.15 9.8-29L9.8-29Q8.65-29.15 7.48-29.1 6.3-29.05 5.15-29.4L5.15-29.4Q5.2-30.2 5.2-31.25 5.2-32.3 5.25-33.35L5.25-33.35Q5.3-34.5 5.35-35.8L5.35-35.8Q6.65-35.7 7.95-35.65 9.25-35.6 10.55-35.6L10.55-35.6Q13.1-35.6 15.48-35.73 17.85-35.85 19.88-36.02 21.9-36.2 23.85-36.45L23.85-36.45 23.3-33.75Q23.05-32.6 22.83-31.4 22.6-30.2 22.4-29.35L22.4-29.35Q21.3-29.05 20.18-28.93 19.05-28.8 17.95-28.6L17.95-28.6Q17.6-26.9 17.2-24.83 16.8-22.75 16.43-20.53 16.05-18.3 15.7-16 15.35-13.7 15-11.6L15-11.6Q14.2-6.65 13.5-1.35L13.5-1.35ZM40.25-12.35Q40.25-9.55 39.17-7.28 38.1-5 36.27-3.35 34.45-1.7 31.97-0.8 29.5 0.1 26.65 0.1L26.65 0.1Q24.65 0.1 22.65-0.98 20.65-2.05 18.8-4.4L18.8-4.4 22.5-11.65Q22.85-11 23.55-10.33 24.25-9.65 25.12-9.15 26-8.65 26.87-8.33 27.75-8 28.45-8L28.45-8Q29.05-8 29.7-8.2 30.35-8.4 30.9-8.8 31.45-9.2 31.77-9.73 32.1-10.25 32.1-10.95L32.1-10.95Q32.1-12.15 31.32-13.18 30.55-14.2 29.4-15.13 28.25-16.05 26.9-17 25.55-17.95 24.42-19 23.3-20.05 22.5-21.35 21.7-22.65 21.7-24.25L21.7-24.25Q21.7-26.85 23.25-29.1 24.8-31.35 27.12-32.98 29.45-34.6 32.2-35.55 34.95-36.5 37.4-36.5L37.4-36.5Q38.75-36.5 39.95-36.18 41.15-35.85 42.02-35.13 42.9-34.4 43.42-33.3 43.95-32.2 43.95-30.55L43.95-30.55Q43.95-29.85 43.82-29.15 43.7-28.45 43.6-27.65L43.6-27.65 36.35-25.55Q36.45-25.95 36.52-26.35 36.6-26.75 36.6-27.15L36.6-27.15Q36.6-28.65 36.07-29.33 35.55-30 34.7-30L34.7-30Q34.3-30 33.72-29.7 33.15-29.4 32.57-28.93 32-28.45 31.6-27.8 31.2-27.15 31.2-26.4L31.2-26.4Q31.2-25.2 31.87-24.4 32.55-23.6 33.55-22.9 34.55-22.2 35.72-21.48 36.9-20.75 37.9-19.6 38.9-18.45 39.57-16.73 40.25-15 40.25-12.35L40.25-12.35ZM47.14-1.45L39.84 0.25Q41.34-6.95 42.7-13.7L42.7-13.7Q43.2-16.6 43.77-19.7 44.34-22.8 44.84-25.83 45.34-28.85 45.74-31.63 46.14-34.4 46.34-36.65L46.34-36.65Q46.99-36.6 47.45-36.6 47.89-36.6 48.49-36.6L48.49-36.6Q49.2-36.6 50.2-36.63 51.2-36.65 52.2-36.7 53.2-36.75 54.34-36.8L54.34-36.8Q55.05-33.3 55.59-30.05L55.59-30.05Q56.14-27.2 56.72-24.2 57.3-21.2 57.75-19.1L57.75-19.1Q57.95-20.1 58.2-21.43 58.45-22.75 58.75-24.2 59.05-25.65 59.32-27.13 59.59-28.6 59.89-30.05L59.89-30.05Q60.59-33.3 61.34-36.75L61.34-36.75 67.44-37.5Q65.75-29.85 64.44-23L64.44-23Q63.84-20.05 63.27-17.03 62.7-14 62.2-11.23 61.7-8.45 61.34-6.08 61-3.7 60.8-2.1L60.8-2.1Q60.64-2.1 59.62-1.88 58.59-1.65 57.27-1.35 55.95-1.05 54.62-0.75 53.3-0.45 52.64-0.2L52.64-0.2Q52.34-4.2 51.99-7.8L51.99-7.8Q51.84-9.35 51.67-10.98 51.49-12.6 51.3-14.1 51.09-15.6 50.89-16.9 50.7-18.2 50.49-19.15L50.49-19.15Q50.34-18.2 50.09-16.95 49.84-15.7 49.59-14.3 49.34-12.9 49.09-11.38 48.84-9.85 48.55-8.45L48.55-8.45Q47.89-5.1 47.14-1.45L47.14-1.45Z" opacity="1" transform="matrix(1,0,0,1,0,0)" fill="#471aa0" class="wordmark-text-0" data-fill-palette-color="quaternary" id="text-0"></path></svg></g></svg></g></svg></g></svg></g><g transform="matrix(1,0,0,1,8.409599999999998,0)"><svg viewBox="0 0 213.5808 161.65008623318792" height="161.65008623318792" width="213.5808"><g><svg version="1.1" xmlns="http://www.w3.org/2000/svg" xmlns:xlink="http://www.w3.org/1999/xlink" x="0" y="0" viewBox="0.00013375282287597656 0.00013375282287597656 100.000244140625 75.68586730957031" enable-background="new 0 0 100 75.687" xml:space="preserve" width="213.5808" height="161.65008623318792" class="icon-icon-0" data-fill-palette-color="quaternary" id="icon-0"><circle fill="#471aa0" cx="28.697" cy="50.591" r="3.6" data-fill-palette-color="quaternary"></circle><circle fill="#471aa0" cx="65.346" cy="50.591" r="3.6" data-fill-palette-color="quaternary"></circle><path fill="#471aa0" d="M17.146 13.544L8.697 2.039C7.183-0.124 4.201-0.649 2.039 0.865-0.124 2.379-0.649 5.36 0.865 7.523l9.437 12.914C12.27 17.917 14.567 15.604 17.146 13.544z" data-fill-palette-color="quaternary"></path><path fill="#471aa0" d="M97.537 41.828l-3.662-1.084 4.875-2.718c1.175-0.656 1.598-2.14 0.94-3.315-0.653-1.175-2.138-1.597-3.313-0.94l-7.563 4.217c-0.143 0.08-0.271 0.172-0.393 0.273C85.566 20.798 68.44 7.246 47.419 6.434V6.399c-0.134 0.002-0.265 0.014-0.397 0.018-0.132-0.003-0.263-0.015-0.396-0.018v0.035C23.573 7.325 5.197 23.532 5.197 43.421c0 19.886 18.376 31.338 41.43 32.229v0.036c0.132-0.005 0.264-0.014 0.396-0.019 0.132 0.005 0.263 0.014 0.397 0.019V75.65c22.698-0.876 40.847-12 41.401-31.325l7.332 2.174c1.288 0.382 2.647-0.353 3.028-1.642C99.562 43.566 98.827 42.213 97.537 41.828zM58.499 63.835c-5.814-2.982-6.33-8.374-11.079-9.375h-0.791c-4.751 1.001-5.265 6.393-11.08 9.375-7.766 3.983-19.768 0-19.062-11.952 0.553-9.351 13.232-18.667 30.537-19.093 17.307 0.427 29.985 9.743 30.539 19.093C78.268 63.835 66.267 67.818 58.499 63.835z" data-fill-palette-color="quaternary"></path></svg></g></svg></g><g></g></svg></g></svg></g></svg></g></svg></g><defs></defs></svg><rect width="576" height="360" fill="none" stroke="none" visibility="hidden"></rect></g></svg></g></svg>